# Blender v2.79 (sub 0) OBJ File: 'firetwister.blend'
# www.blender.org
mtllib Firetwister.mtl
o Cylinder
v -0.568593 0.005782 -0.420426
v -0.619219 2.197030 -0.458065
v -0.088939 0.005782 -0.707150
v -0.098121 2.197030 -0.769562
v 0.452972 0.005782 -0.570727
v 0.490612 2.197030 -0.621352
v 0.739696 0.005782 -0.091072
v 0.802108 2.197030 -0.100255
v 0.603273 0.005782 0.450839
v 0.653898 2.197030 0.488478
v 0.123618 0.005782 0.737562
v 0.132801 2.197030 0.799975
v -0.418293 0.005782 0.601139
v -0.455932 2.197030 0.651765
v -0.705016 0.005782 0.121485
v -0.767429 2.197030 0.130668
v -0.537183 1.031385 -0.397074
v -0.083242 1.031385 -0.668427
v 0.429620 1.031385 -0.539317
v 0.700973 1.031385 -0.085375
v 0.571863 1.031385 0.427486
v 0.117921 1.031385 0.698839
v -0.394940 1.031385 0.569730
v -0.666293 1.031385 0.115788
v -0.146981 3.287722 -1.101651
v -0.888590 3.287722 -0.658339
v 0.690885 3.287722 -0.890723
v 1.134197 3.287722 -0.149115
v 0.923269 3.287722 0.688751
v 0.181660 3.287722 1.132063
v -0.656205 3.287722 0.921136
v -1.099517 3.287722 0.179527
vt 0.984482 0.313877
vt 0.984482 0.666407
vt 0.861236 0.666407
vt 0.861236 0.313877
vt 0.737991 0.666407
vt 0.737991 0.313877
vt 0.614745 0.666407
vt 0.614745 0.313877
vt 0.491500 0.666407
vt 0.491500 0.313877
vt 0.368255 0.666407
vt 0.368255 0.313877
vt 0.245009 0.666407
vt 0.245009 0.313877
vt 0.614745 0.996270
vt 0.491500 0.996270
vt 0.121764 0.666407
vt 0.121764 0.313877
vt -0.001482 0.666407
vt -0.001482 0.313877
vt 0.121764 0.003700
vt -0.001482 0.003700
vt 0.245009 0.003700
vt 0.368255 0.003700
vt 0.491500 0.003700
vt 0.614745 0.003700
vt 0.737991 0.003700
vt 0.861236 0.003700
vt 0.984482 0.003700
vt 0.245009 0.996270
vt 0.121764 0.996270
vt 0.861236 0.996270
vt 0.737991 0.996270
vt 0.368255 0.996270
vt -0.001482 0.996270
vt 0.984482 0.996270
vn -0.5114 -0.0808 -0.8555
vn 0.2433 -0.0808 -0.9666
vn 0.8555 -0.0808 -0.5114
vn 0.9666 -0.0808 0.2433
vn 0.5114 -0.0808 0.8555
vn -0.2433 -0.0808 0.9666
vn 0.9328 -0.2735 0.2348
vn -0.8555 -0.0808 0.5114
vn -0.9666 -0.0808 -0.2433
vn -0.9691 0.0352 -0.2440
vn -0.8578 0.0352 0.5128
vn -0.2440 0.0352 0.9691
vn 0.5128 0.0352 0.8578
vn 0.9691 0.0352 0.2440
vn 0.8578 0.0352 -0.5128
vn 0.2440 0.0352 -0.9691
vn -0.5128 0.0352 -0.8578
vn -0.8256 -0.2735 0.4935
vn 0.2348 -0.2735 -0.9328
vn 0.4935 -0.2735 0.8256
vn -0.9328 -0.2735 -0.2348
vn -0.4935 -0.2735 -0.8256
vn 0.8256 -0.2735 -0.4935
vn -0.2348 -0.2735 0.9328
usemtl Material.002
s off
f 17/1/1 2/2/1 4/3/1 18/4/1
f 18/4/2 4/3/2 6/5/2 19/6/2
f 19/6/3 6/5/3 8/7/3 20/8/3
f 20/8/4 8/7/4 10/9/4 21/10/4
f 21/10/5 10/9/5 12/11/5 22/12/5
f 22/12/6 12/11/6 14/13/6 23/14/6
f 10/9/7 8/7/7 28/15/7 29/16/7
f 23/14/8 14/13/8 16/17/8 24/18/8
f 24/18/9 16/17/9 2/19/9 17/20/9
f 15/21/10 24/18/10 17/20/10 1/22/10
f 13/23/11 23/14/11 24/18/11 15/21/11
f 11/24/12 22/12/12 23/14/12 13/23/12
f 9/25/13 21/10/13 22/12/13 11/24/13
f 7/26/14 20/8/14 21/10/14 9/25/14
f 5/27/15 19/6/15 20/8/15 7/26/15
f 3/28/16 18/4/16 19/6/16 5/27/16
f 1/29/17 17/1/17 18/4/17 3/28/17
f 16/17/18 14/13/18 31/30/18 32/31/18
f 6/5/19 4/3/19 25/32/19 27/33/19
f 12/11/20 10/9/20 29/16/20 30/34/20
f 2/19/21 16/17/21 32/31/21 26/35/21
f 4/3/22 2/2/22 26/36/22 25/32/22
f 8/7/23 6/5/23 27/33/23 28/15/23
f 14/13/24 12/11/24 30/34/24 31/30/24
